<?xml version="1.0" encoding="UTF-8" standalone="no"?><svg xmlns="http://www.w3.org/2000/svg" xmlns:xlink="http://www.w3.org/1999/xlink" contentScriptType="application/ecmascript" contentStyleType="text/css" height="342px" preserveAspectRatio="none" style="width:495px;height:342px;" version="1.1" viewBox="0 0 495 342" width="495px" zoomAndPan="magnify"><defs><filter height="300%" id="f1vg28uwggm41n" width="300%" x="-1" y="-1"><feGaussianBlur result="blurOut" stdDeviation="2.0"/><feColorMatrix in="blurOut" result="blurOut2" type="matrix" values="0 0 0 0 0 0 0 0 0 0 0 0 0 0 0 0 0 0 .4 0"/><feOffset dx="4.0" dy="4.0" in="blurOut2" result="blurOut3"/><feBlend in="SourceGraphic" in2="blurOut3" mode="normal"/></filter></defs><g><!--MD5=[b4656b21c9e5a3a18cd0e5196e62a386]
entity CloudScheduler--><ellipse cx="245" cy="20.5" fill="#FEFECE" filter="url(#f1vg28uwggm41n)" rx="8" ry="8" style="stroke: #A80036; stroke-width: 2.0;"/><text fill="#000000" font-family="sans-serif" font-size="14" lengthAdjust="spacingAndGlyphs" textLength="114" x="188" y="50.4951">Cloud Scheduler</text><path d="M289,8 L289,16.5 L254.1953,20.5 L289,24.5 L289,33.1328 A0,0 0 0 0 289,33.1328 L415,33.1328 A0,0 0 0 0 415,33.1328 L415,18 L405,8 L289,8 A0,0 0 0 0 289,8 " fill="#FBFB77" filter="url(#f1vg28uwggm41n)" style="stroke: #A80036; stroke-width: 1.0;"/><path d="M405,8 L405,18 L415,18 L405,8 " fill="#FBFB77" style="stroke: #A80036; stroke-width: 1.0;"/><text fill="#000000" font-family="sans-serif" font-size="13" lengthAdjust="spacingAndGlyphs" textLength="105" x="295" y="25.0669">Runs once a day</text><!--MD5=[c688ce205854206d580145d5ec9cc3e5]
entity CronUpdateShops--><rect fill="#FEFECE" filter="url(#f1vg28uwggm41n)" height="36.2969" style="stroke: #A80036; stroke-width: 1.5;" width="147" x="171.5" y="93"/><text fill="#000000" font-family="sans-serif" font-size="14" lengthAdjust="spacingAndGlyphs" textLength="127" x="181.5" y="115.9951">CronUpdateShops</text><!--MD5=[2f3eb0985b647ed59e43981c7ec7e32d]
entity QueueSaveShop1--><rect fill="#FEFECE" filter="url(#f1vg28uwggm41n)" height="36.2969" style="stroke: #A80036; stroke-width: 1.5;" width="136" x="6" y="189"/><text fill="#000000" font-family="sans-serif" font-size="14" lengthAdjust="spacingAndGlyphs" textLength="116" x="16" y="211.9951">QueueSaveShop</text><!--MD5=[2f7ff47a1fe4955acefbf891d6d3c4d4]
entity QueueSaveShop2--><rect fill="#FEFECE" filter="url(#f1vg28uwggm41n)" height="36.2969" style="stroke: #A80036; stroke-width: 1.5;" width="136" x="177" y="189"/><text fill="#000000" font-family="sans-serif" font-size="14" lengthAdjust="spacingAndGlyphs" textLength="116" x="187" y="211.9951">QueueSaveShop</text><!--MD5=[7f13e8f4c4a34c411c038f81929034bf]
entity QueueSaveShop3--><rect fill="#FEFECE" filter="url(#f1vg28uwggm41n)" height="36.2969" style="stroke: #A80036; stroke-width: 1.5;" width="136" x="348" y="189"/><text fill="#000000" font-family="sans-serif" font-size="14" lengthAdjust="spacingAndGlyphs" textLength="116" x="358" y="211.9951">QueueSaveShop</text><!--MD5=[3f131eedacfb8fde153e5eefbfe11a45]
entity CloudFirestore--><path d="M182.5,295 C182.5,285 245,285 245,285 C245,285 307.5,285 307.5,295 L307.5,320.2969 C307.5,330.2969 245,330.2969 245,330.2969 C245,330.2969 182.5,330.2969 182.5,320.2969 L182.5,295 " fill="#FEFECE" filter="url(#f1vg28uwggm41n)" style="stroke: #000000; stroke-width: 1.5;"/><path d="M182.5,295 C182.5,305 245,305 245,305 C245,305 307.5,305 307.5,295 " fill="none" style="stroke: #000000; stroke-width: 1.5;"/><text fill="#000000" font-family="sans-serif" font-size="14" lengthAdjust="spacingAndGlyphs" textLength="105" x="192.5" y="321.9951">Cloud Firestore</text><!--MD5=[bb9a3c4810ea7299ea429210929b95ec]
link CloudScheduler to CronUpdateShops--><path d="M245,29.5083 C245,42.9126 245,68.5615 245,87.5187 " fill="none" id="CloudScheduler-&gt;CronUpdateShops" style="stroke: #A80036; stroke-width: 1.0;"/><polygon fill="#A80036" points="245,92.6724,249,83.6724,245,87.6724,241,83.6724,245,92.6724" style="stroke: #A80036; stroke-width: 1.0;"/><!--MD5=[f78126abf070d3730abe0adeb8042d44]
link CronUpdateShops to QueueSaveShop1--><path d="M212.8362,129.0569 C183.7894,145.3638 141.0683,169.3476 110.698,186.3976 " fill="none" id="CronUpdateShops-&gt;QueueSaveShop1" style="stroke: #A80036; stroke-width: 1.0;"/><polygon fill="#A80036" points="106.3098,188.8612,116.1158,187.9432,110.6697,186.4135,112.1994,180.9674,106.3098,188.8612" style="stroke: #A80036; stroke-width: 1.0;"/><!--MD5=[eabfbe5205da84163fe6764cf784d6bb]
link CronUpdateShops to QueueSaveShop2--><path d="M245,129.0569 C245,144.5126 245,166.8647 245,183.6731 " fill="none" id="CronUpdateShops-&gt;QueueSaveShop2" style="stroke: #A80036; stroke-width: 1.0;"/><polygon fill="#A80036" points="245,188.6977,249,179.6977,245,183.6977,241,179.6977,245,188.6977" style="stroke: #A80036; stroke-width: 1.0;"/><!--MD5=[8a3bdb5b353ef0f2cbdc12bd0262264f]
link CronUpdateShops to QueueSaveShop3--><path d="M277.1638,129.0569 C306.2106,145.3638 348.9317,169.3476 379.302,186.3976 " fill="none" id="CronUpdateShops-&gt;QueueSaveShop3" style="stroke: #A80036; stroke-width: 1.0;"/><polygon fill="#A80036" points="383.6902,188.8612,377.8006,180.9674,379.3303,186.4135,373.8842,187.9432,383.6902,188.8612" style="stroke: #A80036; stroke-width: 1.0;"/><!--MD5=[b67708e19d8d98dbd80ec209ca0ac09a]
link QueueSaveShop1 to CloudFirestore--><path d="M104.9668,225.1998 C132.12,241.1582 171.8671,264.5184 202.0845,282.2777 " fill="none" id="QueueSaveShop1-&gt;CloudFirestore" style="stroke: #A80036; stroke-width: 1.0;"/><polygon fill="#A80036" points="206.4711,284.8558,200.7387,276.8471,202.1605,282.3223,196.6852,283.7441,206.4711,284.8558" style="stroke: #A80036; stroke-width: 1.0;"/><!--MD5=[86799d75f05aab2103c07c14c0ce7454]
link QueueSaveShop2 to CloudFirestore--><path d="M245,225.4332 C245,240.6342 245,262.434 245,279.7454 " fill="none" id="QueueSaveShop2-&gt;CloudFirestore" style="stroke: #A80036; stroke-width: 1.0;"/><polygon fill="#A80036" points="245,284.9615,249,275.9615,245,279.9615,241,275.9615,245,284.9615" style="stroke: #A80036; stroke-width: 1.0;"/><!--MD5=[1c65156c811cc39d5e1e2a70c0d02793]
link QueueSaveShop3 to CloudFirestore--><path d="M385.0332,225.1998 C357.88,241.1582 318.1329,264.5184 287.9155,282.2777 " fill="none" id="QueueSaveShop3-&gt;CloudFirestore" style="stroke: #A80036; stroke-width: 1.0;"/><polygon fill="#A80036" points="283.5289,284.8558,293.3148,283.7441,287.8395,282.3223,289.2613,276.8471,283.5289,284.8558" style="stroke: #A80036; stroke-width: 1.0;"/><!--MD5=[6c29db87ee317ead0484a3a8559b82e8]
@startuml
interface "Cloud Scheduler" as CloudScheduler
note right of CloudScheduler : Runs once a day

agent CronUpdateShops
agent QueueSaveShop as QueueSaveShop1
agent QueueSaveShop as QueueSaveShop2
agent QueueSaveShop as QueueSaveShop3
database "Cloud Firestore" as CloudFirestore

CloudScheduler -down-> CronUpdateShops
CronUpdateShops -down-> QueueSaveShop1
CronUpdateShops -down-> QueueSaveShop2
CronUpdateShops -down-> QueueSaveShop3
QueueSaveShop1 -down-> CloudFirestore
QueueSaveShop2 -down-> CloudFirestore
QueueSaveShop3 -down-> CloudFirestore
@enduml

PlantUML version 1.2020.06(Sun Apr 05 12:38:32 GMT 2020)
(GPL source distribution)
Java Runtime: OpenJDK Runtime Environment
JVM: OpenJDK 64-Bit Server VM
Java Version: 14-ea+33
Operating System: Linux
Default Encoding: UTF-8
Language: en
Country: US
--></g></svg>